HIERARCHY
ROOT hips
{
	OFFSET 0.000000 104.274902 0.000000
	CHANNELS 6 Xposition Yposition Zposition Xrotation Yrotation Zrotation
	JOINT spine
	{
		OFFSET 0.000000 10.181549 0.131524
		CHANNELS 6 Xposition Yposition Zposition Xrotation Yrotation Zrotation
		JOINT chest
		{
			OFFSET 0.000000 9.893990 -1.470706
			CHANNELS 3 Xrotation Yrotation Zrotation
			JOINT upperChest
			{
				OFFSET 0.000000 9.220787 -1.370637
				CHANNELS 3 Xrotation Yrotation Zrotation
				JOINT neck
				{
					OFFSET 0.000000 16.740372 -2.049022
					CHANNELS 6 Xposition Yposition Zposition Xrotation Yrotation Zrotation
					JOINT head
					{
						OFFSET 0.000000 9.617859 1.684976
						CHANNELS 6 Xposition Yposition Zposition Xrotation Yrotation Zrotation
						JOINT headEnd
						{
							OFFSET 0.000000 22.037384 7.501072
							CHANNELS 6 Xposition Yposition Zposition Xrotation Yrotation Zrotation
							End Site
							{
								OFFSET 0.000000 23.106567 -2.828246
							}
						}
					}
				}
				JOINT rightShoulder
				{
					OFFSET -4.570000 11.014877 -2.160840
					CHANNELS 6 Xposition Yposition Zposition Xrotation Yrotation Zrotation
					JOINT rightUpperArm
					{
						OFFSET -10.592867 -0.524796 -2.232105
						CHANNELS 3 Xrotation Yrotation Zrotation
						JOINT rightLowerArm
						{
							OFFSET -27.841497 0.000000 -0.000002
							CHANNELS 3 Xrotation Yrotation Zrotation
							JOINT rightHand
							{
								OFFSET -28.328812 0.000000 -0.000001
								CHANNELS 3 Xrotation Yrotation Zrotation
								JOINT rightThumbProximal
								{
									OFFSET -2.464798 -1.573990 2.681911
									CHANNELS 6 Xposition Yposition Zposition Xrotation Yrotation Zrotation
									JOINT rightThumbIntermediate
									{
										OFFSET -3.244781 -1.873383 1.873376
										CHANNELS 3 Xrotation Yrotation Zrotation
										JOINT rightThumbDistal
										{
											OFFSET -2.646263 -1.527817 1.527818
											CHANNELS 6 Xposition Yposition Zposition Xrotation Yrotation Zrotation
											JOINT rightHandThumb4
											{
												OFFSET -1.994591 -1.151581 1.151575
												CHANNELS 6 Xposition Yposition Zposition Xrotation Yrotation Zrotation
												End Site
												{
													OFFSET -1.860176 -1.142715 1.365483
												}
											}
										}
									}
								}
								JOINT rightIndexProximal
								{
									OFFSET -9.108299 -0.517883 2.259803
									CHANNELS 6 Xposition Yposition Zposition Xrotation Yrotation Zrotation
									JOINT rightIndexIntermediate
									{
										OFFSET -3.699997 0.000000 0.000000
										CHANNELS 3 Xrotation Yrotation Zrotation
										JOINT rightIndexDistal
										{
											OFFSET -2.850006 0.000000 0.000000
											CHANNELS 3 Xrotation Yrotation Zrotation
											JOINT rightHandIndex4
											{
												OFFSET -2.772194 0.000000 0.000000
												CHANNELS 3 Xrotation Yrotation Zrotation
												End Site
												{
													OFFSET -2.772202 0.000000 -0.000484
												}
											}
										}
									}
								}
								JOINT rightMiddleProximal
								{
									OFFSET -9.532501 0.000000 -0.000000
									CHANNELS 6 Xposition Yposition Zposition Xrotation Yrotation Zrotation
									JOINT rightMiddleIntermediate
									{
										OFFSET -3.699997 0.000000 0.000000
										CHANNELS 3 Xrotation Yrotation Zrotation
										JOINT rightMiddleDistal
										{
											OFFSET -2.949997 0.000000 0.000000
											CHANNELS 3 Xrotation Yrotation Zrotation
											JOINT rightHandMiddle4
											{
												OFFSET -2.946594 0.000000 0.000000
												CHANNELS 3 Xrotation Yrotation Zrotation
												End Site
												{
													OFFSET -2.946602 0.000000 -0.000982
												}
											}
										}
									}
								}
								JOINT rightRingProximal
								{
									OFFSET -9.103600 -0.043106 -1.865100
									CHANNELS 6 Xposition Yposition Zposition Xrotation Yrotation Zrotation
									JOINT rightRingIntermediate
									{
										OFFSET -3.379303 0.000000 0.000000
										CHANNELS 3 Xrotation Yrotation Zrotation
										JOINT rightRingDistal
										{
											OFFSET -2.889694 0.000000 0.000000
											CHANNELS 3 Xrotation Yrotation Zrotation
											JOINT rightHandRing4
											{
												OFFSET -2.638802 0.000000 0.000000
												CHANNELS 3 Xrotation Yrotation Zrotation
												End Site
												{
													OFFSET -2.638802 0.000000 0.004218
												}
											}
										}
									}
								}
								JOINT rightLittleProximal
								{
									OFFSET -8.076698 -0.486725 -3.806299
									CHANNELS 6 Xposition Yposition Zposition Xrotation Yrotation Zrotation
									JOINT rightLittleIntermediate
									{
										OFFSET -3.600006 0.000000 0.000000
										CHANNELS 3 Xrotation Yrotation Zrotation
										JOINT rightLittleDistal
										{
											OFFSET -2.099998 0.000000 0.000000
											CHANNELS 3 Xrotation Yrotation Zrotation
											JOINT rightHandPinky4
											{
												OFFSET -2.115791 0.000000 0.000000
												CHANNELS 3 Xrotation Yrotation Zrotation
												End Site
												{
													OFFSET -2.115799 0.000000 0.000174
												}
											}
										}
									}
								}
							}
						}
					}
				}
				JOINT leftShoulder
				{
					OFFSET 4.570400 11.014679 -2.160816
					CHANNELS 6 Xposition Yposition Zposition Xrotation Yrotation Zrotation
					JOINT leftUpperArm
					{
						OFFSET 10.592373 -0.524597 -2.232116
						CHANNELS 3 Xrotation Yrotation Zrotation
						JOINT leftLowerArm
						{
							OFFSET 27.841488 0.000000 0.000001
							CHANNELS 3 Xrotation Yrotation Zrotation
							JOINT leftHand
							{
								OFFSET 28.328808 0.000000 -0.000000
								CHANNELS 3 Xrotation Yrotation Zrotation
								JOINT leftThumbProximal
								{
									OFFSET 2.466103 -1.576202 2.681698
									CHANNELS 6 Xposition Yposition Zposition Xrotation Yrotation Zrotation
									JOINT leftThumbIntermediate
									{
										OFFSET 3.243317 -1.872528 1.872530
										CHANNELS 3 Xrotation Yrotation Zrotation
										JOINT leftThumbDistal
										{
											OFFSET 2.647881 -1.528763 1.528754
											CHANNELS 6 Xposition Yposition Zposition Xrotation Yrotation Zrotation
											JOINT leftHandThumb4
											{
												OFFSET 1.998924 -1.154083 1.154080
												CHANNELS 6 Xposition Yposition Zposition Xrotation Yrotation Zrotation
												End Site
												{
													OFFSET 1.884041 -1.149155 1.337651
												}
											}
										}
									}
								}
								JOINT leftIndexProximal
								{
									OFFSET 9.109299 -0.518005 2.259900
									CHANNELS 6 Xposition Yposition Zposition Xrotation Yrotation Zrotation
									JOINT leftIndexIntermediate
									{
										OFFSET 3.699997 0.000000 0.000000
										CHANNELS 3 Xrotation Yrotation Zrotation
										JOINT leftIndexDistal
										{
											OFFSET 2.850006 0.000000 0.000000
											CHANNELS 3 Xrotation Yrotation Zrotation
											JOINT leftHandIndex4
											{
												OFFSET 2.774895 0.000000 0.000000
												CHANNELS 3 Xrotation Yrotation Zrotation
												End Site
												{
													OFFSET 2.774902 0.000000 -0.000072
												}
											}
										}
									}
								}
								JOINT leftMiddleProximal
								{
									OFFSET 9.533401 0.000000 0.000000
									CHANNELS 6 Xposition Yposition Zposition Xrotation Yrotation Zrotation
									JOINT leftMiddleIntermediate
									{
										OFFSET 3.699997 0.000000 0.000000
										CHANNELS 3 Xrotation Yrotation Zrotation
										JOINT leftMiddleDistal
										{
											OFFSET 2.949997 0.000000 0.000000
											CHANNELS 3 Xrotation Yrotation Zrotation
											JOINT leftHandMiddle4
											{
												OFFSET 2.952896 0.000000 0.000000
												CHANNELS 3 Xrotation Yrotation Zrotation
												End Site
												{
													OFFSET 2.952904 0.000000 0.000165
												}
											}
										}
									}
								}
								JOINT leftRingProximal
								{
									OFFSET 9.104500 -0.042999 -1.865101
									CHANNELS 6 Xposition Yposition Zposition Xrotation Yrotation Zrotation
									JOINT leftRingIntermediate
									{
										OFFSET 3.149994 0.000000 0.000000
										CHANNELS 3 Xrotation Yrotation Zrotation
										JOINT leftRingDistal
										{
											OFFSET 2.950005 0.000000 0.000000
											CHANNELS 3 Xrotation Yrotation Zrotation
											JOINT leftHandRing4
											{
												OFFSET 2.644302 0.000000 0.000000
												CHANNELS 3 Xrotation Yrotation Zrotation
												End Site
												{
													OFFSET 2.644302 0.000000 0.000083
												}
											}
										}
									}
								}
								JOINT leftLittleProximal
								{
									OFFSET 8.077805 -0.486893 -3.806302
									CHANNELS 6 Xposition Yposition Zposition Xrotation Yrotation Zrotation
									JOINT leftLittleIntermediate
									{
										OFFSET 3.600006 0.000000 0.000000
										CHANNELS 3 Xrotation Yrotation Zrotation
										JOINT leftLittleDistal
										{
											OFFSET 2.099998 0.000000 0.000000
											CHANNELS 3 Xrotation Yrotation Zrotation
											JOINT leftHandPinky4
											{
												OFFSET 2.125496 0.000000 0.000000
												CHANNELS 3 Xrotation Yrotation Zrotation
												End Site
												{
													OFFSET 2.125504 0.000000 -0.001254
												}
											}
										}
									}
								}
							}
						}
					}
				}
			}
		}
	}
	JOINT rightUpperLeg
	{
		OFFSET -8.207800 -6.751701 -1.599544
		CHANNELS 6 Xposition Yposition Zposition Xrotation Yrotation Zrotation
		JOINT rightLowerLeg
		{
			OFFSET 0.000004 -44.370152 0.345934
			CHANNELS 3 Xrotation Yrotation Zrotation
			JOINT rightFoot
			{
				OFFSET 0.000004 -44.423664 -3.043535
				CHANNELS 3 Xrotation Yrotation Zrotation
				JOINT rightToes
				{
					OFFSET 0.000001 -8.728691 10.710592
					CHANNELS 3 Xrotation Yrotation Zrotation
					JOINT rightToesEnd
					{
						OFFSET 0.000000 -0.000665 9.278101
						CHANNELS 3 Xrotation Yrotation Zrotation
						End Site
						{
							OFFSET 0.000000 -0.000665 9.278103
						}
					}
				}
			}
		}
	}
	JOINT leftUpperLeg
	{
		OFFSET 8.207800 -6.751701 -1.599544
		CHANNELS 6 Xposition Yposition Zposition Xrotation Yrotation Zrotation
		JOINT leftLowerLeg
		{
			OFFSET 0.000004 -44.370037 0.346940
			CHANNELS 3 Xrotation Yrotation Zrotation
			JOINT leftFoot
			{
				OFFSET 0.000004 -44.423611 -3.044388
				CHANNELS 3 Xrotation Yrotation Zrotation
				JOINT leftToes
				{
					OFFSET 0.000001 -8.728690 10.710592
					CHANNELS 3 Xrotation Yrotation Zrotation
					JOINT leftToesEnd
					{
						OFFSET 0.000000 -0.000680 9.278101
						CHANNELS 3 Xrotation Yrotation Zrotation
						End Site
						{
							OFFSET 0.000000 -0.000680 9.278101
						}
					}
				}
			}
		}
	}
}
MOTION
Frames: 4
Frame Time: 0.033333
0.271333 99.702614 0.812642 -6.413107 -2.617190 -3.357026 -0.000000 10.181545 0.131523 1.780274 -0.229688 1.405470 3.556056 -0.243659 1.039295 3.556054 -0.243661 1.039295 0.000000 16.740360 -2.049022 4.769109 -1.685496 0.815221 0.000001 9.617854 1.684976 1.923104 5.270100 4.383721 0.000002 22.037384 7.501072 -0.000000 -0.000000 0.000000 -4.570001 11.014858 -2.160840 0.459143 5.812919 15.924910 8.594879 18.587166 60.222126 -2.233342 24.118084 0.834969 -1.826688 14.676159 -22.841254 -2.464796 -1.574008 2.681915 1.597834 0.343287 2.572405 1.238833 -15.612837 -9.936797 -2.646273 -1.527813 1.527824 -16.767880 29.808557 13.476213 -1.994586 -1.151586 1.151581 0.000000 0.000000 0.000001 -9.108297 -0.517869 2.259806 0.164230 -5.184901 4.282567 1.843401 0.346729 13.680382 6.339807 -0.228308 50.264844 0.000002 -0.000000 0.000002 -9.532498 0.000006 0.000005 -6.266665 -1.997580 3.989421 6.534663 -1.844883 56.162156 12.383334 0.656789 100.623870 -0.000004 0.000002 0.000000 -9.103594 -0.043102 -1.865094 -7.138829 -3.481811 21.242240 13.666319 -2.333209 124.298556 6.356660 5.808560 21.414677 -0.000002 0.000002 -0.000001 -8.076699 -0.486728 -3.806300 -11.229646 -21.953053 22.361063 15.127944 -4.312323 110.722038 11.233624 -1.374287 28.284476 -0.000002 0.000000 -0.000002 4.570404 11.014672 -2.160815 0.611382 -8.206460 -9.122560 1.335902 -8.247118 -72.435672 21.821614 -9.793502 4.278483 -4.249427 -10.557628 10.634311 2.466089 -1.576205 2.681697 14.786200 3.899315 14.309777 6.729963 13.911061 9.856554 2.647896 -1.528735 1.528749 0.481927 3.191096 1.963864 1.998910 -1.154093 1.154076 -0.000003 0.000003 -0.000000 9.109292 -0.518016 2.259900 0.501971 6.676485 -21.091126 2.577262 1.322059 -33.795472 4.475502 -1.875667 -10.633316 0.000002 0.000002 0.000002 9.533383 0.000006 -0.000002 0.819339 7.158357 -28.826042 5.168402 0.500749 -34.762425 5.828369 0.304088 -11.765476 -0.000000 0.000000 -0.000002 9.104494 -0.042997 -1.865101 1.250857 8.750532 -35.369315 7.025361 1.621654 -43.499289 5.913450 0.258012 -16.165687 -0.000002 -0.000002 0.000000 8.077800 -0.486894 -3.806299 -3.902026 12.728894 -38.236584 9.438720 2.917502 -41.680437 9.889247 4.976492 -12.178876 -0.000001 -0.000000 0.000000 -8.207799 -6.751706 -1.599542 -11.662600 -3.808390 7.283446 30.338812 2.512010 0.143461 -12.078426 0.635064 -5.717168 0.886383 -0.000000 0.000003 0.000000 -0.000000 0.000000 8.207800 -6.751705 -1.599543 -23.561701 2.365293 2.164610 62.159045 23.554575 1.300956 -4.804752 0.623745 -7.656182 4.638910 0.000003 0.000005 -0.000003 -0.000002 0.000001 
0.372734 99.935493 4.344893 -5.831951 -3.941419 -2.197786 -0.000000 10.181548 0.131526 1.719095 -0.050569 0.999865 3.437396 -0.045234 0.628562 3.437392 -0.045233 0.628562 -0.000000 16.740353 -2.049020 5.873343 -1.722732 0.157602 0.000001 9.617877 1.684974 3.321569 4.668706 4.757624 -0.000000 22.037354 7.501072 0.000000 0.000000 -0.000000 -4.569996 11.014881 -2.160840 0.429238 6.847157 14.941894 8.576674 20.385294 59.714725 -14.073720 27.822216 6.678688 -1.859132 16.844957 -21.294486 -2.464811 -1.574006 2.681903 1.597834 0.343284 2.572405 1.238836 -15.612837 -9.936797 -2.646259 -1.527803 1.527822 -16.767882 29.808547 13.476207 -1.994591 -1.151570 1.151586 0.000002 -0.000003 0.000003 -9.108312 -0.517881 2.259797 0.164227 -5.184902 4.282566 1.843407 0.346731 13.680382 6.339809 -0.228305 50.264844 0.000000 -0.000000 0.000001 -9.532509 -0.000010 -0.000009 -6.266668 -1.997584 3.989423 6.534661 -1.844884 56.162159 12.383329 0.656790 100.623877 -0.000002 0.000001 -0.000003 -9.103617 -0.043118 -1.865103 -7.138830 -3.481814 21.242243 13.666321 -2.333209 124.298556 6.356661 5.808557 21.414673 0.000001 -0.000002 -0.000001 -8.076706 -0.486725 -3.806303 -11.229648 -21.953054 22.361064 15.127940 -4.312322 110.722045 11.233625 -1.374289 28.284478 0.000004 -0.000003 -0.000001 4.570401 11.014670 -2.160815 0.579299 -7.113768 -9.902530 3.033623 -5.439148 -72.882100 23.864862 -8.578830 4.192469 -4.556722 -9.194440 8.881070 2.466103 -1.576213 2.681699 14.786215 3.899322 14.309778 6.729955 13.911052 9.856564 2.647890 -1.528738 1.528752 0.481921 3.191100 1.963861 1.998925 -1.154091 1.154076 -0.000000 -0.000003 -0.000003 9.109306 -0.518017 2.259898 0.500246 6.672000 -21.038229 2.574601 1.318060 -33.742753 4.474599 -1.880411 -10.580668 0.000001 0.000000 0.000000 9.533403 0.000008 -0.000004 0.817023 7.154163 -28.773104 5.165696 0.496852 -34.709730 5.827393 0.299409 -11.712781 0.000000 0.000003 -0.000002 9.104491 -0.042990 -1.865107 1.248097 8.746653 -35.316210 7.022106 1.618195 -43.446495 5.912120 0.253486 -16.113007 -0.000001 -0.000004 -0.000000 8.077785 -0.486886 -3.806308 -3.905054 12.725148 -38.183244 9.435548 2.913954 -41.627558 9.888251 4.971828 -12.126121 0.000000 0.000001 0.000002 -8.207800 -6.751695 -1.599540 -10.085169 -3.805233 5.644427 30.399553 4.224783 0.241979 -13.979920 0.819474 -6.137168 0.404344 0.082686 0.182218 -0.000000 0.000000 0.000000 8.207800 -6.751688 -1.599540 -25.934198 1.730578 0.540261 53.380278 24.896391 1.389445 -4.103733 0.676350 -9.273894 5.016289 0.054854 -0.019510 0.000000 0.000001 0.000000 
0.505908 100.186684 7.895900 -5.162828 -4.682886 -0.889473 0.000000 10.181560 0.131524 1.673963 0.003838 0.505740 3.347890 -0.033468 0.255340 3.347888 -0.033468 0.255341 0.000000 16.740356 -2.049019 6.927378 -1.807755 -0.390830 -0.000000 9.617825 1.684980 4.819103 4.083911 4.918467 0.000001 22.037384 7.501072 0.000000 -0.000000 -0.000000 -4.569999 11.014855 -2.160838 0.426198 7.514976 14.255383 9.211340 21.910533 58.669440 -29.459326 31.603377 16.636739 -3.117512 17.854982 -17.110368 -2.464801 -1.574022 2.681911 1.597832 0.343287 2.572410 1.238831 -15.612832 -9.936796 -2.646280 -1.527809 1.527816 -16.767884 29.808547 13.476210 -1.994586 -1.151583 1.151588 0.000001 0.000002 0.000001 -9.108302 -0.517897 2.259802 0.164227 -5.184899 4.282568 1.843406 0.346729 13.680381 6.339807 -0.228302 50.264844 -0.000001 0.000002 -0.000001 -9.532503 -0.000011 0.000000 -6.266669 -1.997583 3.989423 6.534661 -1.844880 56.162159 12.383329 0.656785 100.623877 0.000002 -0.000003 -0.000001 -9.103601 -0.043097 -1.865102 -7.138830 -3.481811 21.242243 13.666319 -2.333207 124.298556 6.356660 5.808559 21.414672 0.000001 0.000001 0.000002 -8.076702 -0.486729 -3.806300 -11.229647 -21.953056 22.361071 15.127940 -4.312320 110.722045 11.233622 -1.374287 28.284479 -0.000002 0.000001 0.000003 4.570402 11.014653 -2.160813 0.564702 -6.185938 -10.643252 4.849543 -2.906101 -73.210926 25.620424 -7.581226 4.064648 -4.794414 -8.191446 7.134508 2.466107 -1.576226 2.681693 14.786221 3.899323 14.309777 6.729953 13.911051 9.856542 2.647870 -1.528741 1.528742 0.481940 3.191093 1.963869 1.998932 -1.154082 1.154083 0.000003 0.000000 0.000003 9.109303 -0.518011 2.259898 0.496284 6.661679 -20.917126 2.568473 1.308912 -33.621937 4.472600 -1.891256 -10.460091 0.000001 -0.000003 0.000000 9.533402 0.000009 -0.000002 0.811735 7.144555 -28.651759 5.159503 0.487902 -34.588997 5.825203 0.288773 -11.592104 0.000001 0.000000 -0.000002 9.104509 -0.042994 -1.865104 1.241755 8.737759 -35.194578 7.014610 1.610286 -43.325632 5.909149 0.243122 -15.992304 -0.000000 0.000004 -0.000000 8.077792 -0.486892 -3.806301 -3.911933 12.716546 -38.061065 9.428279 2.905781 -41.506530 9.885947 4.961125 -12.005260 0.000000 0.000003 0.000000 -8.207797 -6.751699 -1.599542 -8.176267 -3.623668 4.071661 29.943911 5.068809 0.296432 -16.040383 1.121201 -7.148061 0.633956 0.080528 1.100078 -0.000000 0.000000 0.000000 8.207799 -6.751693 -1.599545 -26.142298 1.240299 -0.878732 41.086217 23.235602 1.290616 -2.638058 0.560121 -8.682040 4.539581 0.038413 -0.017531 -0.000000 0.000001 -0.000002 
0.656863 100.385689 11.432729 -4.766914 -5.344226 0.232409 -0.000000 10.181547 0.131527 1.666036 0.029063 -0.065070 3.332038 -0.000928 -0.014489 3.332038 -0.000928 -0.014490 0.000000 16.740393 -2.049022 7.923452 -1.940159 -0.837599 0.000000 9.617825 1.684976 6.366669 3.473877 4.879324 0.000003 22.037384 7.501075 -0.000001 -0.000000 0.000000 -4.569997 11.014882 -2.160839 0.432006 7.858467 13.777211 10.162743 22.544371 57.571268 -47.129384 33.531591 31.090697 -5.576646 17.025585 -10.541221 -2.464790 -1.573998 2.681921 1.597831 0.343287 2.572406 1.238831 -15.612834 -9.936798 -2.646276 -1.527828 1.527816 -16.767887 29.808561 13.476213 -1.994594 -1.151569 1.151578 -0.000001 -0.000003 0.000001 -9.108292 -0.517887 2.259813 0.164227 -5.184900 4.282567 1.843404 0.346728 13.680382 6.339806 -0.228310 50.264844 0.000002 -0.000001 -0.000001 -9.532494 0.000000 0.000003 -6.266669 -1.997583 3.989423 6.534660 -1.844878 56.162156 12.383333 0.656786 100.623870 -0.000001 -0.000001 0.000000 -9.103598 -0.043101 -1.865099 -7.138830 -3.481813 21.242243 13.666321 -2.333211 124.298556 6.356660 5.808559 21.414672 -0.000000 -0.000000 -0.000001 -8.076691 -0.486725 -3.806290 -11.229647 -21.953051 22.361069 15.127942 -4.312321 110.722038 11.233625 -1.374290 28.284479 -0.000001 -0.000002 -0.000000 4.570402 11.014701 -2.160814 0.559311 -5.518407 -11.339653 6.763122 -0.755861 -73.501599 26.865332 -6.907224 3.949288 -4.965864 -7.620242 5.641691 2.466069 -1.576194 2.681694 14.786195 3.899324 14.309771 6.729956 13.911025 9.856561 2.647898 -1.528752 1.528747 0.481918 3.191103 1.963841 1.998913 -1.154079 1.154077 -0.000000 0.000004 0.000001 9.109276 -0.518011 2.259900 0.489816 6.644782 -20.718850 2.558530 1.293911 -33.424156 4.469333 -1.909030 -10.262654 -0.000001 0.000001 -0.000003 9.533393 0.000006 0.000000 0.803092 7.128818 -28.453135 5.149420 0.473220 -34.391341 5.821641 0.271335 -11.394504 0.000002 0.000001 0.000000 9.104490 -0.042992 -1.865100 1.231383 8.723183 -34.995444 7.002417 1.597322 -43.127720 5.904302 0.226114 -15.794713 -0.000000 0.000002 -0.000000 8.077798 -0.486894 -3.806304 -3.923234 12.702449 -37.861026 9.416435 2.892366 -41.308386 9.882235 4.943612 -11.807391 -0.000000 0.000002 0.000001 -8.207801 -6.751710 -1.599540 -6.000942 -3.233151 2.644737 29.297349 5.632751 0.335314 -17.989424 1.503650 -8.455949 0.684073 0.047087 2.536210 0.000000 0.000000 0.000000 8.207799 -6.751695 -1.599540 -24.292189 1.204127 -1.852801 26.434647 19.078352 1.042139 -0.399115 0.363228 -6.987451 3.302762 -0.030984 -0.012790 0.000000 0.000001 -0.000001 
